<svg xmlns="http://www.w3.org/2000/svg" version="1.1" xmlns:xlink="http://www.w3.org/1999/xlink" viewBox="0 0 200 200"><rect width="200" height="200" fill="url('#gradient')"></rect><defs><linearGradient id="gradient" gradientTransform="rotate(45 0.5 0.5)"><stop offset="0%" stop-color="#0e5278"></stop><stop offset="100%" stop-color="#2b2d05"></stop></linearGradient></defs><g><g fill="#97b2cd" transform="matrix(4.043878894251865,0,0,4.043878894251865,7.942421875171576,129.92704640631615)" stroke="#f4f4f4" stroke-width="0.2"><path d="M0.51-5.36L0.51-5.36Q0.51-7.87 1.59-9.32Q2.68-10.76 4.62-10.76L4.62-10.76Q6.04-10.76 7.00-9.65L7.00-9.65L7.00-15L10.30-15L10.30 0L7.34 0L7.18-1.13Q6.16 0.20 4.60 0.20L4.60 0.20Q2.71 0.20 1.61-1.25Q0.51-2.70 0.51-5.36ZM3.81-5.76L3.80-5.16Q3.80-2.34 5.44-2.34L5.44-2.34Q6.53-2.34 7.00-3.26L7.00-3.26L7.00-7.29Q6.55-8.22 5.46-8.22L5.46-8.22Q3.94-8.22 3.81-5.76L3.81-5.76ZM18.62-10.64L18.56-7.59L17.48-7.67Q15.93-7.67 15.49-6.69L15.49-6.69L15.49 0L12.20 0L12.20-10.57L15.28-10.57L15.39-9.21Q16.22-10.76 17.71-10.76L17.71-10.76Q18.23-10.76 18.62-10.64L18.62-10.64ZM23.22-10.57L23.22 0L19.92 0L19.92-10.57L23.22-10.57ZM19.73-13.29L19.73-13.29Q19.73-13.99 20.23-14.44Q20.74-14.89 21.55-14.89Q22.36-14.89 22.87-14.44Q23.38-13.99 23.38-13.29Q23.38-12.59 22.87-12.14Q22.36-11.69 21.55-11.69Q20.74-11.69 20.23-12.14Q19.73-12.59 19.73-13.29ZM27.82-10.57L29.46-3.92L31.13-10.57L34.60-10.57L31.15 0L27.79 0L24.35-10.57L27.82-10.57ZM40.57 0.20L40.57 0.20Q38.13 0.20 36.63-1.25Q35.13-2.71 35.13-5.03L35.13-5.03L35.13-5.30Q35.13-6.92 35.73-8.16Q36.33-9.40 37.48-10.08Q38.63-10.76 40.21-10.76L40.21-10.76Q42.44-10.76 43.73-9.38Q45.02-8.00 45.02-5.53L45.02-5.53L45.02-4.25L38.48-4.25Q38.65-3.36 39.25-2.85Q39.84-2.34 40.79-2.34L40.79-2.34Q42.35-2.34 43.23-3.44L43.23-3.44L44.74-1.66Q44.12-0.81 42.99-0.31Q41.87 0.20 40.57 0.20ZM40.20-8.22L40.20-8.22Q38.75-8.22 38.48-6.31L38.48-6.31L41.80-6.31L41.80-6.56Q41.82-7.35 41.40-7.79Q40.98-8.22 40.20-8.22Z"></path></g></g></svg>